<?xml version="1.0" encoding="UTF-8"?>
<svg xmlns="http://www.w3.org/2000/svg" xmlns:xlink="http://www.w3.org/1999/xlink" width="854" height="480" viewBox="0 0 854 480">
<defs>
<g>
<g id="glyph-0-0">
<path d="M 6.375 -4 C 6.71875 -5.132812 6.894531 -6.289062 6.90625 -7.46875 L 8.453125 -7.453125 C 8.441406 -6.109375 8.234375 -4.804688 7.828125 -3.546875 Z M 8.609375 -6.015625 L 8.609375 -8.921875 L 8.09375 -8.921875 C 7.625 -8.921875 7.039062 -8.898438 6.34375 -8.859375 C 6.394531 -9.316406 6.394531 -9.769531 6.34375 -10.21875 C 7.039062 -10.175781 7.625 -10.15625 8.09375 -10.15625 L 12.59375 -10.15625 L 12.59375 -0.125 C 12.59375 0.582031 12.363281 1.070312 11.90625 1.34375 C 11.457031 1.59375 10.679688 1.710938 9.578125 1.703125 C 9.710938 1.148438 9.5 0.570312 8.9375 -0.03125 C 9.675781 0.0507812 10.207031 0.09375 10.53125 0.09375 C 10.851562 0.101562 11.03125 0.09375 11.0625 0.0625 C 11.125 0.0078125 11.144531 -0.210938 11.125 -0.609375 L 11.125 -8.921875 L 10.078125 -8.921875 L 10.078125 -6.015625 C 10.078125 -4.296875 9.710938 -2.785156 8.984375 -1.484375 C 8.253906 -0.191406 7.203125 0.847656 5.828125 1.640625 C 5.578125 1.203125 5.007812 0.90625 4.125 0.75 C 5.769531 0.0078125 6.925781 -0.90625 7.59375 -2 C 8.269531 -3.101562 8.609375 -4.441406 8.609375 -6.015625 Z M 4.046875 1.625 C 3.523438 1.570312 2.992188 1.570312 2.453125 1.625 C 2.503906 0.789062 2.53125 0.0664062 2.53125 -0.546875 L 2.53125 -3.875 L 1.9375 -3.875 C 1.457031 -3.875 0.875 -3.859375 0.1875 -3.828125 C 0.238281 -4.273438 0.238281 -4.722656 0.1875 -5.171875 C 0.875 -5.140625 1.457031 -5.125 1.9375 -5.125 L 2.53125 -5.125 L 2.53125 -5.96875 L 2.25 -5.96875 C 1.78125 -5.96875 1.207031 -5.953125 0.53125 -5.921875 C 0.5625 -6.367188 0.554688 -6.816406 0.515625 -7.265625 C 1.210938 -7.222656 1.789062 -7.203125 2.25 -7.203125 L 2.53125 -7.203125 L 2.53125 -8.1875 L 1.984375 -8.1875 C 1.503906 -8.1875 0.921875 -8.164062 0.234375 -8.125 C 0.273438 -8.570312 0.28125 -9.023438 0.25 -9.484375 C 0.914062 -9.453125 1.492188 -9.4375 1.984375 -9.4375 L 2.625 -9.34375 L 2.53125 -9.34375 C 2.53125 -9.957031 2.503906 -10.679688 2.453125 -11.515625 C 2.992188 -11.453125 3.523438 -11.453125 4.046875 -11.515625 C 4.003906 -10.691406 3.984375 -9.96875 3.984375 -9.34375 L 3.890625 -9.34375 L 4.890625 -9.4375 C 5.367188 -9.4375 5.941406 -9.453125 6.609375 -9.484375 C 6.578125 -9.023438 6.582031 -8.570312 6.625 -8.125 C 5.9375 -8.164062 5.359375 -8.1875 4.890625 -8.1875 L 3.984375 -8.1875 L 3.984375 -7.203125 L 4.65625 -7.203125 C 5.125 -7.203125 5.707031 -7.222656 6.40625 -7.265625 C 6.363281 -6.816406 6.359375 -6.367188 6.390625 -5.921875 C 5.710938 -5.953125 5.132812 -5.96875 4.65625 -5.96875 L 3.984375 -5.96875 L 3.984375 -5.125 L 6.34375 -5.125 L 6.34375 -1.75 C 6.34375 -1.414062 6.210938 -1.125 5.953125 -0.875 C 5.535156 -0.46875 4.851562 -0.265625 3.90625 -0.265625 C 4.019531 -0.835938 3.800781 -1.492188 3.25 -2.234375 C 3.925781 -2.023438 4.34375 -1.910156 4.5 -1.890625 C 4.789062 -1.878906 4.925781 -1.867188 4.90625 -1.859375 C 4.894531 -1.847656 4.882812 -1.859375 4.875 -1.890625 L 4.875 -3.875 L 3.984375 -3.875 L 3.984375 -0.546875 C 3.984375 0.078125 4.003906 0.800781 4.046875 1.625 Z "/>
</g>
<g id="glyph-0-1">
<path d="M 13.421875 -0.265625 C 13.378906 0.171875 13.378906 0.613281 13.421875 1.0625 C 12.742188 1.019531 12.175781 1 11.71875 1 L 6.296875 1 C 5.835938 1 5.273438 1.019531 4.609375 1.0625 C 4.648438 0.613281 4.648438 0.171875 4.609375 -0.265625 C 5.265625 -0.234375 5.828125 -0.21875 6.296875 -0.21875 L 8.140625 -0.21875 L 8.140625 -3.0625 L 7.203125 -3.0625 C 6.753906 -3.0625 6.191406 -3.039062 5.515625 -3 C 5.566406 -3.4375 5.566406 -3.878906 5.515625 -4.328125 C 6.179688 -4.296875 6.742188 -4.28125 7.203125 -4.28125 L 8.140625 -4.28125 L 8.140625 -6.84375 L 6.53125 -6.84375 C 6.09375 -5.601562 5.59375 -4.457031 5.03125 -3.40625 C 4.601562 -3.707031 4.078125 -3.859375 3.453125 -3.859375 C 4.296875 -5.390625 4.875 -6.554688 5.1875 -7.359375 C 5.5 -8.160156 5.789062 -9.1875 6.0625 -10.4375 C 6.582031 -10.226562 7.125 -10.078125 7.6875 -9.984375 L 6.96875 -8.0625 L 8.140625 -8.0625 L 8.140625 -9.203125 C 8.140625 -9.816406 8.117188 -10.535156 8.078125 -11.359375 C 8.597656 -11.304688 9.117188 -11.304688 9.640625 -11.359375 C 9.609375 -10.535156 9.59375 -9.816406 9.59375 -9.203125 L 9.59375 -8.0625 L 11.265625 -8.0625 C 11.734375 -8.0625 12.300781 -8.078125 12.96875 -8.109375 C 12.925781 -7.671875 12.925781 -7.234375 12.96875 -6.796875 C 12.300781 -6.828125 11.734375 -6.84375 11.265625 -6.84375 L 9.59375 -6.84375 L 9.59375 -4.28125 L 10.875 -4.28125 C 11.34375 -4.28125 11.90625 -4.296875 12.5625 -4.328125 C 12.53125 -3.878906 12.535156 -3.4375 12.578125 -3 C 11.898438 -3.039062 11.332031 -3.0625 10.875 -3.0625 L 9.59375 -3.0625 L 9.59375 -0.21875 L 11.71875 -0.21875 C 12.1875 -0.21875 12.753906 -0.234375 13.421875 -0.265625 Z M 3.171875 -0.296875 C 3.171875 0.296875 3.195312 0.992188 3.25 1.796875 C 2.75 1.742188 2.242188 1.742188 1.734375 1.796875 C 1.773438 1.003906 1.796875 0.304688 1.796875 -0.296875 L 1.796875 -9.265625 C 1.796875 -9.859375 1.773438 -10.550781 1.734375 -11.34375 C 2.242188 -11.28125 2.75 -11.285156 3.25 -11.359375 C 3.195312 -10.546875 3.171875 -9.847656 3.171875 -9.265625 L 3.140625 -8.625 L 3.328125 -8.8125 L 5.046875 -6.4375 L 3.890625 -5.53125 L 3.171875 -6.5 Z M -0.40625 -5.078125 C 0.0078125 -6.097656 0.367188 -7.171875 0.671875 -8.296875 L 2.078125 -7.890625 C 1.765625 -6.722656 1.382812 -5.585938 0.9375 -4.484375 Z "/>
</g>
<g id="glyph-0-2">
<path d="M 13.34375 -9.375 C 13.289062 -8.863281 13.289062 -8.359375 13.34375 -7.859375 C 12.5625 -7.890625 11.878906 -7.90625 11.296875 -7.90625 L 4.6875 -7.90625 L 4.6875 -6.328125 L 12.4375 -6.328125 L 11.953125 0.09375 C 11.929688 0.550781 11.765625 0.90625 11.453125 1.15625 C 11.140625 1.40625 10.800781 1.570312 10.4375 1.65625 C 10.0625 1.71875 9.378906 1.75 8.390625 1.75 C 8.492188 1.34375 8.515625 1.054688 8.453125 0.890625 C 8.398438 0.734375 8.109375 0.421875 7.578125 -0.046875 C 8.472656 0.0351562 9.15625 0.0703125 9.625 0.0625 C 10.09375 0.0507812 10.351562 0.03125 10.40625 0 C 10.4375 -0.0195312 10.457031 -0.125 10.46875 -0.3125 L 10.828125 -4.9375 L 3.15625 -4.9375 L 3.15625 -9.21875 C 3.15625 -9.882812 3.140625 -10.648438 3.109375 -11.515625 C 3.648438 -11.453125 4.195312 -11.453125 4.75 -11.515625 C 4.707031 -10.648438 4.6875 -9.882812 4.6875 -9.21875 L 4.59375 -9.21875 L 11.296875 -9.3125 C 11.878906 -9.3125 12.5625 -9.332031 13.34375 -9.375 Z M 10.046875 -3.609375 C 9.992188 -3.109375 9.992188 -2.601562 10.046875 -2.09375 C 9.265625 -2.125 8.582031 -2.140625 8 -2.140625 L 2.25 -2.140625 C 1.664062 -2.140625 0.984375 -2.125 0.203125 -2.09375 C 0.253906 -2.601562 0.253906 -3.109375 0.203125 -3.609375 C 0.984375 -3.566406 1.664062 -3.546875 2.25 -3.546875 L 8 -3.546875 C 8.582031 -3.546875 9.265625 -3.566406 10.046875 -3.609375 Z "/>
</g>
<g id="glyph-0-3">
<path d="M 8.28125 1.359375 C 7.8125 1.359375 7.4375 1.210938 7.15625 0.921875 C 6.882812 0.640625 6.75 0.28125 6.75 -0.15625 L 6.75 -1.546875 C 6.75 -2.117188 6.734375 -2.789062 6.703125 -3.5625 C 7.203125 -3.507812 7.703125 -3.507812 8.203125 -3.5625 C 8.160156 -2.789062 8.140625 -2.117188 8.140625 -1.546875 L 8.140625 -0.15625 C 8.140625 -0.0625 8.15625 0.00390625 8.1875 0.046875 C 8.226562 0.0976562 8.265625 0.125 8.296875 0.125 L 10.78125 0.125 C 10.8125 0.125 10.84375 0.015625 10.875 -0.203125 L 11.1875 -1.890625 C 11.53125 -1.671875 11.675781 -1.515625 11.625 -1.421875 L 11.203125 -1.890625 L 12.5 -2.5625 L 13.890625 0.09375 L 12.59375 0.765625 L 12.203125 0.015625 L 12.109375 0.484375 C 12.003906 1.066406 11.757812 1.359375 11.375 1.359375 Z M 7.25 -3.25 C 6.90625 -3.25 6.46875 -3.238281 5.9375 -3.21875 C 5.957031 -3.59375 5.957031 -3.960938 5.9375 -4.328125 C 6.46875 -4.304688 6.90625 -4.296875 7.25 -4.296875 L 11.265625 -4.296875 L 11.265625 -4.90625 L 7.46875 -4.90625 C 7.132812 -4.90625 6.691406 -4.890625 6.140625 -4.859375 C 6.179688 -5.242188 6.179688 -5.617188 6.140625 -5.984375 C 6.679688 -5.960938 7.125 -5.953125 7.46875 -5.953125 L 11.265625 -5.953125 L 11.265625 -6.4375 L 9.625 -6.59375 C 9.5625 -6.3125 9.5 -6.3125 9.4375 -6.59375 L 7.421875 -6.4375 C 7.046875 -6.4375 6.554688 -6.425781 5.953125 -6.40625 C 6.015625 -6.800781 6.015625 -7.1875 5.953125 -7.5625 L 6.265625 -7.328125 C 6.097656 -7.253906 5.816406 -7.304688 5.421875 -7.484375 C 6.210938 -8.109375 6.769531 -8.671875 7.09375 -9.171875 C 7.425781 -9.679688 7.757812 -10.398438 8.09375 -11.328125 C 8.53125 -11.117188 8.984375 -10.96875 9.453125 -10.875 C 9.296875 -10.3125 9.191406 -9.972656 9.140625 -9.859375 L 11.9375 -9.859375 L 12.171875 -8.703125 C 11.835938 -8.609375 11.609375 -8.5 11.484375 -8.375 L 10.703125 -7.53125 L 12.640625 -7.53125 L 12.640625 -2.671875 L 11.265625 -2.671875 L 11.265625 -3.25 L 9.8125 -3.25 L 10.78125 -1.484375 L 9.484375 -0.796875 L 8.125 -3.25 L 8.390625 -3.3125 Z M 4.34375 0.53125 C 4.8125 -0.570312 5.203125 -1.691406 5.515625 -2.828125 L 6.9375 -2.4375 C 6.59375 -1.21875 6.175781 -0.0390625 5.6875 1.09375 Z M 7.609375 -7.546875 L 8.8125 -7.53125 L 9.96875 -8.765625 L 8.546875 -8.765625 C 8.191406 -8.203125 7.878906 -7.796875 7.609375 -7.546875 Z M 5.859375 -8.9375 L 4 -8.765625 L 4 -7.34375 L 4.359375 -7.34375 C 4.753906 -7.34375 5.265625 -7.367188 5.890625 -7.421875 C 5.828125 -6.992188 5.820312 -6.566406 5.875 -6.140625 C 5.269531 -6.171875 4.765625 -6.1875 4.359375 -6.1875 L 4 -6.1875 L 3.90625 -5.796875 L 4.0625 -6.0625 L 5.6875 -3.859375 L 4.5625 -2.90625 L 4 -3.65625 L 4 -0.59375 C 4 0.0078125 4.019531 0.710938 4.0625 1.515625 C 3.570312 1.460938 3.078125 1.460938 2.578125 1.515625 C 2.609375 0.710938 2.625 0.0078125 2.625 -0.59375 L 2.890625 -4.328125 L 3.109375 -4.140625 C 2.847656 -3.609375 2.484375 -2.929688 2.015625 -2.109375 L 1.140625 -0.640625 C 0.828125 -0.972656 0.398438 -1.175781 -0.140625 -1.25 C 0.578125 -2.375 1.222656 -3.550781 1.796875 -4.78125 L 2.4375 -6.1875 L 1.78125 -6.1875 C 1.363281 -6.1875 0.851562 -6.171875 0.25 -6.140625 C 0.300781 -6.566406 0.296875 -6.992188 0.234375 -7.421875 C 0.859375 -7.367188 1.375 -7.34375 1.78125 -7.34375 L 2.625 -7.34375 L 2.625 -8.609375 L 1.15625 -8.375 L 0.359375 -9.78125 C 0.921875 -9.78125 1.316406 -9.769531 1.546875 -9.75 C 1.847656 -9.726562 2.332031 -9.773438 3 -9.890625 C 3.945312 -10.035156 4.832031 -10.234375 5.65625 -10.484375 C 5.675781 -9.921875 5.742188 -9.40625 5.859375 -8.9375 Z "/>
</g>
<g id="glyph-0-4">
<path d="M 6.171875 -5.9375 L 3.328125 -5.9375 C 2.878906 -5.9375 2.316406 -5.914062 1.640625 -5.875 C 1.679688 -6.320312 1.679688 -6.765625 1.640625 -7.203125 C 2.304688 -7.171875 2.867188 -7.15625 3.328125 -7.15625 L 10.5625 -7.15625 C 11.03125 -7.15625 11.597656 -7.171875 12.265625 -7.203125 C 12.210938 -6.765625 12.210938 -6.320312 12.265625 -5.875 C 11.585938 -5.914062 11.019531 -5.9375 10.5625 -5.9375 L 7.609375 -5.9375 L 7.609375 -3.9375 L 9.71875 -3.9375 C 10.175781 -3.9375 10.738281 -3.957031 11.40625 -4 C 11.351562 -3.550781 11.351562 -3.109375 11.40625 -2.671875 C 10.75 -2.703125 10.1875 -2.71875 9.71875 -2.71875 L 7.609375 -2.71875 L 7.609375 -0.09375 C 7.929688 -0.0078125 8.570312 0.0390625 9.53125 0.0625 L 13.265625 0.1875 C 12.847656 0.695312 12.628906 1.195312 12.609375 1.6875 C 11.523438 1.613281 10.585938 1.570312 9.796875 1.5625 C 7.710938 1.59375 6.101562 1.195312 4.96875 0.375 C 4.207031 -0.175781 3.710938 -0.671875 3.484375 -1.109375 C 3.035156 -0.078125 2.285156 0.953125 1.234375 1.984375 C 0.921875 1.566406 0.460938 1.257812 -0.140625 1.0625 C 1.242188 -0.207031 2.113281 -1.359375 2.46875 -2.390625 C 2.675781 -3.117188 2.859375 -3.988281 3.015625 -5 C 3.546875 -4.863281 4.09375 -4.785156 4.65625 -4.765625 C 4.5 -4.046875 4.351562 -3.460938 4.21875 -3.015625 C 4.550781 -1.796875 5.203125 -0.988281 6.171875 -0.59375 Z M 2.53125 -6.96875 L 1.078125 -6.96875 L 1.078125 -9.984375 L 5.890625 -9.96875 L 5 -10.828125 L 6.078125 -11.921875 L 7.78125 -10.296875 L 7.46875 -9.96875 L 12.34375 -9.96875 L 12.34375 -6.96875 L 10.90625 -6.96875 L 10.90625 -8.765625 L 2.53125 -8.75 Z "/>
</g>
</g>
</defs>
<g fill="rgb(100%, 100%, 100%)" fill-opacity="1">
<use xlink:href="#glyph-0-0" x="30" y="32.837891"/>
<use xlink:href="#glyph-0-1" x="43" y="32.837891"/>
<use xlink:href="#glyph-0-2" x="56" y="32.837891"/>
<use xlink:href="#glyph-0-3" x="69" y="32.837891"/>
<use xlink:href="#glyph-0-4" x="82" y="32.837891"/>
<use xlink:href="#glyph-0-1" x="95" y="32.837891"/>
</g>
</svg>
