<?xml version="1.0" encoding="UTF-8"?>
<svg xmlns="http://www.w3.org/2000/svg" xmlns:xlink="http://www.w3.org/1999/xlink" width="854" height="480" viewBox="0 0 854 480">
<defs>
<g>
<g id="glyph-0-0">
<path d="M 7.640625 -0.484375 C 7.609375 -0.203125 7.609375 0.0859375 7.640625 0.390625 C 7.179688 0.359375 6.785156 0.34375 6.453125 0.34375 L 1.421875 0.34375 C 1.085938 0.34375 0.691406 0.359375 0.234375 0.390625 C 0.265625 0.0859375 0.265625 -0.203125 0.234375 -0.484375 C 0.691406 -0.472656 1.085938 -0.46875 1.421875 -0.46875 L 6.453125 -0.46875 C 6.785156 -0.46875 7.179688 -0.472656 7.640625 -0.484375 Z M 6.453125 -3.453125 C 6.429688 -3.148438 6.429688 -2.859375 6.453125 -2.578125 C 6.003906 -2.585938 5.609375 -2.59375 5.265625 -2.59375 L 2.46875 -2.59375 C 2.132812 -2.59375 1.738281 -2.585938 1.28125 -2.578125 C 1.3125 -2.859375 1.3125 -3.148438 1.28125 -3.453125 C 1.738281 -3.421875 2.132812 -3.40625 2.46875 -3.40625 L 5.265625 -3.40625 C 5.609375 -3.40625 6.003906 -3.421875 6.453125 -3.453125 Z M 7.3125 -6.15625 C 7.28125 -5.851562 7.28125 -5.554688 7.3125 -5.265625 C 6.851562 -5.273438 6.453125 -5.28125 6.109375 -5.28125 L 1.84375 -5.28125 C 1.507812 -5.28125 1.113281 -5.273438 0.65625 -5.265625 C 0.6875 -5.554688 0.6875 -5.851562 0.65625 -6.15625 C 1.113281 -6.125 1.507812 -6.109375 1.84375 -6.109375 L 6.109375 -6.109375 C 6.453125 -6.109375 6.851562 -6.125 7.3125 -6.15625 Z "/>
</g>
<g id="glyph-0-1">
<path d="M 7.8125 -2.515625 C 7.769531 -2.242188 7.765625 -1.976562 7.796875 -1.71875 C 7.390625 -1.726562 7.046875 -1.734375 6.765625 -1.734375 L 4.8125 -1.890625 L 5.046875 -1.9375 C 4.867188 -1.695312 4.585938 -1.347656 4.203125 -0.890625 L 3.59375 -0.1875 L 5.796875 -0.390625 L 5.796875 -0.34375 L 5.421875 -0.609375 L 6.015625 -1.296875 C 6.585938 -0.796875 7.125 -0.265625 7.625 0.296875 L 6.9375 0.890625 C 6.695312 0.628906 6.503906 0.421875 6.359375 0.265625 L 5.875 0.296875 L 2.234375 0.671875 L 2.171875 -0.078125 C 2.347656 -0.078125 2.460938 -0.101562 2.515625 -0.15625 C 3.003906 -0.707031 3.421875 -1.234375 3.765625 -1.734375 L 3.015625 -1.734375 C 2.734375 -1.734375 2.394531 -1.726562 2 -1.71875 C 2.019531 -1.976562 2.019531 -2.242188 2 -2.515625 C 2.394531 -2.484375 2.734375 -2.46875 3.015625 -2.46875 L 6.765625 -2.46875 C 7.046875 -2.46875 7.394531 -2.484375 7.8125 -2.515625 Z M 7.15625 -3.921875 C 7.132812 -3.660156 7.132812 -3.394531 7.15625 -3.125 C 6.757812 -3.15625 6.421875 -3.171875 6.140625 -3.171875 L 3.46875 -3.171875 C 3.175781 -3.171875 2.828125 -3.15625 2.421875 -3.125 C 2.460938 -3.394531 2.46875 -3.660156 2.4375 -3.921875 C 2.832031 -3.910156 3.175781 -3.90625 3.46875 -3.90625 L 6.140625 -3.90625 C 6.421875 -3.90625 6.757812 -3.910156 7.15625 -3.921875 Z M 1.28125 -6.375 L 7.265625 -6.375 L 7.265625 -4.421875 L 2.140625 -4.421875 L 2.140625 -2.28125 C 2.148438 -0.914062 1.734375 0.171875 0.890625 0.984375 C 0.710938 0.742188 0.40625 0.59375 -0.03125 0.53125 C 0.875 -0.113281 1.316406 -1.050781 1.296875 -2.28125 Z M 2.140625 -5.15625 L 6.421875 -5.15625 L 6.421875 -5.640625 L 2.140625 -5.640625 C 2.140625 -5.484375 2.140625 -5.320312 2.140625 -5.15625 Z "/>
</g>
<g id="glyph-0-2">
<path d="M 0.15625 -2.921875 C 0.175781 -3.160156 0.175781 -3.398438 0.15625 -3.640625 C 0.519531 -3.628906 0.828125 -3.625 1.078125 -3.625 L 2.203125 -3.625 L 2.203125 -0.84375 L 2.15625 -0.890625 C 2.71875 -1.242188 3.242188 -1.675781 3.734375 -2.1875 L 2.859375 -2.1875 L 2.859375 -4.0625 L 4.265625 -4.078125 L 4.265625 -4.578125 L 3.53125 -4.578125 C 3.28125 -4.578125 2.972656 -4.570312 2.609375 -4.5625 C 2.628906 -4.800781 2.628906 -5.039062 2.609375 -5.28125 C 2.972656 -5.269531 3.28125 -5.265625 3.53125 -5.265625 L 4.78125 -5.265625 C 4.8125 -5.304688 4.847656 -5.363281 4.890625 -5.4375 C 4.941406 -5.519531 4.984375 -5.59375 5.015625 -5.65625 L 5.5625 -6.671875 C 5.820312 -6.515625 6.085938 -6.378906 6.359375 -6.265625 C 6.160156 -5.890625 5.960938 -5.554688 5.765625 -5.265625 L 6.890625 -5.265625 L 6.890625 -3.390625 L 5.09375 -3.390625 L 5.09375 -2.859375 L 7.1875 -2.859375 L 7.1875 -1.296875 C 7.1875 -1.097656 7.09375 -0.925781 6.90625 -0.78125 C 6.644531 -0.570312 6.171875 -0.472656 5.484375 -0.484375 C 5.546875 -0.796875 5.421875 -1.117188 5.109375 -1.453125 C 5.523438 -1.421875 5.835938 -1.398438 6.046875 -1.390625 C 6.265625 -1.390625 6.367188 -1.378906 6.359375 -1.359375 C 6.347656 -1.347656 6.34375 -1.347656 6.34375 -1.359375 L 6.34375 -2.1875 L 5.09375 -2.1875 L 5.09375 -1.171875 C 5.09375 -0.816406 5.109375 -0.40625 5.140625 0.0625 C 4.835938 0.03125 4.53125 0.03125 4.21875 0.0625 C 4.25 -0.40625 4.265625 -0.816406 4.265625 -1.171875 L 4.265625 -1.453125 C 3.984375 -1.171875 3.503906 -0.804688 2.828125 -0.359375 C 3.148438 -0.117188 3.707031 -0.0078125 4.5 -0.03125 L 7.9375 0 C 7.539062 0.289062 7.359375 0.578125 7.390625 0.859375 L 4.5 0.859375 C 3.84375 0.859375 3.257812 0.742188 2.75 0.515625 C 2.25 0.285156 1.898438 0.0195312 1.703125 -0.28125 L 0.71875 0.859375 C 0.53125 0.617188 0.320312 0.398438 0.09375 0.203125 L 0.484375 -0.140625 L 1.375 -0.953125 L 1.375 -2.9375 L 1.078125 -2.9375 C 0.828125 -2.9375 0.519531 -2.929688 0.15625 -2.921875 Z M 1.859375 -4.34375 C 1.453125 -4.851562 1.007812 -5.34375 0.53125 -5.8125 L 1.15625 -6.453125 C 1.65625 -5.960938 2.125 -5.441406 2.5625 -4.890625 Z M 4.140625 -4.953125 C 3.734375 -5.421875 3.289062 -5.851562 2.8125 -6.25 L 3.390625 -6.921875 C 3.898438 -6.492188 4.367188 -6.035156 4.796875 -5.546875 Z M 4.265625 -2.859375 L 4.265625 -3.375 L 3.703125 -3.375 C 3.703125 -3.207031 3.703125 -3.035156 3.703125 -2.859375 Z M 6.0625 -4.578125 L 5.09375 -4.578125 L 5.09375 -4.078125 L 6.0625 -4.078125 Z "/>
</g>
<g id="glyph-0-3">
<path d="M 1.34375 -3.046875 L 1.109375 -3.046875 C 0.835938 -3.046875 0.503906 -3.039062 0.109375 -3.03125 C 0.148438 -3.28125 0.148438 -3.53125 0.109375 -3.78125 C 0.503906 -3.769531 0.835938 -3.765625 1.109375 -3.765625 L 2.1875 -3.765625 L 2.1875 -0.5625 C 2.332031 -0.425781 2.503906 -0.328125 2.703125 -0.265625 C 2.910156 -0.203125 3.078125 -0.15625 3.203125 -0.125 C 3.328125 -0.101562 3.5 -0.0820312 3.71875 -0.0625 C 3.9375 -0.0390625 4.128906 -0.03125 4.296875 -0.03125 L 5.859375 0.046875 C 6.484375 0.078125 7.097656 0.09375 7.703125 0.09375 C 7.429688 0.40625 7.296875 0.707031 7.296875 1 L 4.90625 0.875 C 4.59375 0.863281 4.367188 0.851562 4.234375 0.84375 C 4.097656 0.832031 3.910156 0.816406 3.671875 0.796875 C 3.441406 0.773438 3.28125 0.753906 3.1875 0.734375 C 2.476562 0.609375 1.875 0.304688 1.375 -0.171875 L 1.6875 -0.21875 C 1.300781 0.164062 0.9375 0.53125 0.59375 0.875 C 0.476562 0.507812 0.253906 0.1875 -0.078125 -0.09375 C 0.484375 -0.175781 0.957031 -0.335938 1.34375 -0.578125 Z M 1.765625 -4.65625 C 1.429688 -5.144531 1.066406 -5.609375 0.671875 -6.046875 L 1.34375 -6.640625 C 1.769531 -6.179688 2.160156 -5.6875 2.515625 -5.15625 Z M 6.453125 -0.125 C 6.140625 -0.15625 5.828125 -0.15625 5.515625 -0.125 C 5.546875 -0.59375 5.5625 -1.007812 5.5625 -1.375 L 5.5625 -2.703125 L 4.640625 -2.703125 C 4.671875 -2.109375 4.515625 -1.5625 4.171875 -1.0625 C 3.847656 -0.601562 3.375 -0.265625 2.75 -0.046875 C 2.675781 -0.316406 2.425781 -0.5625 2 -0.78125 C 2.6875 -0.914062 3.15625 -1.140625 3.40625 -1.453125 C 3.695312 -1.804688 3.828125 -2.222656 3.796875 -2.703125 L 3.3125 -2.703125 C 3.039062 -2.703125 2.703125 -2.695312 2.296875 -2.6875 C 2.335938 -2.9375 2.335938 -3.191406 2.296875 -3.453125 C 2.703125 -3.421875 3.039062 -3.40625 3.3125 -3.40625 L 3.796875 -3.40625 L 3.796875 -4.53125 L 3.625 -4.53125 C 3.351562 -4.53125 3.023438 -4.523438 2.640625 -4.515625 C 2.660156 -4.765625 2.660156 -5.015625 2.640625 -5.265625 C 3.023438 -5.253906 3.351562 -5.25 3.625 -5.25 L 3.796875 -5.25 L 3.796875 -5.46875 C 3.796875 -5.820312 3.78125 -6.238281 3.75 -6.71875 C 4.0625 -6.6875 4.375 -6.6875 4.6875 -6.71875 C 4.65625 -6.238281 4.640625 -5.820312 4.640625 -5.46875 L 4.640625 -5.25 L 5.5625 -5.25 L 5.5625 -5.46875 C 5.5625 -5.820312 5.546875 -6.238281 5.515625 -6.71875 C 5.828125 -6.6875 6.140625 -6.6875 6.453125 -6.71875 C 6.421875 -6.238281 6.40625 -5.820312 6.40625 -5.46875 L 6.40625 -5.25 L 6.71875 -5.25 C 6.988281 -5.25 7.328125 -5.253906 7.734375 -5.265625 C 7.691406 -5.015625 7.691406 -4.765625 7.734375 -4.515625 C 7.328125 -4.523438 6.988281 -4.53125 6.71875 -4.53125 L 6.40625 -4.53125 L 6.40625 -3.40625 L 6.796875 -3.40625 C 7.066406 -3.40625 7.40625 -3.421875 7.8125 -3.453125 C 7.769531 -3.191406 7.769531 -2.9375 7.8125 -2.6875 C 7.40625 -2.695312 7.066406 -2.703125 6.796875 -2.703125 L 6.40625 -2.703125 L 6.40625 -1.375 C 6.40625 -1.007812 6.421875 -0.59375 6.453125 -0.125 Z M 1.734375 -0.34375 L 1.6875 -0.28125 L 1.765625 -0.28125 Z M 5.5625 -3.40625 L 5.5625 -4.53125 L 4.640625 -4.53125 L 4.640625 -3.40625 Z "/>
</g>
<g id="glyph-0-4">
<path d="M 4.609375 0.953125 C 4.296875 0.921875 3.992188 0.921875 3.703125 0.953125 C 3.710938 0.472656 3.71875 0.0546875 3.71875 -0.296875 L 3.71875 -2.546875 L 7.25 -2.546875 L 7.25 0.921875 L 6.40625 0.921875 L 6.40625 0.4375 L 4.578125 0.4375 C 4.578125 0.5 4.585938 0.671875 4.609375 0.953125 Z M 7.65625 -3.765625 C 7.613281 -3.523438 7.613281 -3.273438 7.65625 -3.015625 C 7.269531 -3.046875 6.945312 -3.0625 6.6875 -3.0625 L 4.375 -3.0625 C 4.113281 -3.0625 3.785156 -3.046875 3.390625 -3.015625 C 3.429688 -3.273438 3.429688 -3.523438 3.390625 -3.765625 C 3.785156 -3.753906 4.113281 -3.75 4.375 -3.75 L 5 -3.75 L 5 -4.59375 L 4.125 -4.59375 C 3.863281 -4.59375 3.546875 -4.585938 3.171875 -4.578125 C 3.191406 -4.816406 3.191406 -5.0625 3.171875 -5.3125 C 3.546875 -5.300781 3.863281 -5.296875 4.125 -5.296875 L 5 -5.296875 L 5 -5.46875 C 5 -5.832031 4.984375 -6.25 4.953125 -6.71875 C 5.265625 -6.6875 5.570312 -6.6875 5.875 -6.71875 C 5.84375 -6.25 5.828125 -5.832031 5.828125 -5.46875 L 5.828125 -5.296875 L 6.890625 -5.296875 C 7.148438 -5.296875 7.46875 -5.300781 7.84375 -5.3125 C 7.820312 -5.0625 7.820312 -4.816406 7.84375 -4.578125 C 7.46875 -4.585938 7.148438 -4.59375 6.890625 -4.59375 L 5.828125 -4.59375 L 5.828125 -3.75 L 6.6875 -3.75 C 6.945312 -3.75 7.269531 -3.753906 7.65625 -3.765625 Z M 6.40625 -1.84375 L 4.5625 -1.84375 L 4.5625 -0.265625 L 6.40625 -0.265625 Z M 0.328125 0.390625 C 0.296875 0.00390625 0.179688 -0.335938 -0.015625 -0.640625 C 0.460938 -0.660156 0.878906 -0.703125 1.234375 -0.765625 C 1.597656 -0.835938 2.257812 -1.023438 3.21875 -1.328125 L 3.21875 -0.625 C 2.351562 -0.363281 1.753906 -0.171875 1.421875 -0.046875 C 1.097656 0.0664062 0.734375 0.210938 0.328125 0.390625 Z M 1.640625 -6.609375 C 1.910156 -6.453125 2.203125 -6.3125 2.515625 -6.1875 C 2.316406 -5.800781 2.054688 -5.363281 1.734375 -4.875 L 1.296875 -4.203125 L 1.734375 -4.234375 L 1.890625 -4.28125 C 2.015625 -4.476562 2.148438 -4.769531 2.296875 -5.15625 C 2.578125 -4.976562 2.859375 -4.828125 3.140625 -4.703125 C 3.035156 -4.460938 2.929688 -4.257812 2.828125 -4.09375 C 2.722656 -3.9375 2.476562 -3.585938 2.09375 -3.046875 C 1.71875 -2.515625 1.523438 -2.25 1.515625 -2.25 L 2.453125 -2.390625 L 3.09375 -2.546875 L 3.078125 -1.75 L 2.546875 -1.703125 L 0.265625 -1.375 L 0.1875 -2.125 C 0.34375 -2.125 0.441406 -2.144531 0.484375 -2.1875 C 0.816406 -2.59375 1.125 -3.03125 1.40625 -3.5 L 0.15625 -3.3125 L 0.03125 -4.0625 C 0.195312 -4.0625 0.296875 -4.078125 0.328125 -4.109375 C 0.734375 -4.742188 1.109375 -5.425781 1.453125 -6.15625 C 1.492188 -6.257812 1.554688 -6.410156 1.640625 -6.609375 Z "/>
</g>
<g id="glyph-0-5">
<path d="M 4.640625 -4.3125 C 4.941406 -4.132812 5.238281 -3.984375 5.53125 -3.859375 C 5.382812 -3.585938 5.039062 -2.941406 4.5 -1.921875 L 5.109375 -2.03125 L 5.125 -2.03125 C 5.0625 -2.175781 4.953125 -2.421875 4.796875 -2.765625 L 5.578125 -3.140625 C 5.910156 -2.492188 6.195312 -1.828125 6.4375 -1.140625 L 5.578125 -0.84375 C 5.484375 -1.101562 5.414062 -1.285156 5.375 -1.390625 L 5.234375 -1.375 L 3.46875 -0.984375 L 3.296875 -1.703125 C 3.453125 -1.710938 3.539062 -1.738281 3.5625 -1.78125 C 4.125 -2.976562 4.484375 -3.820312 4.640625 -4.3125 Z M 2.9375 -3.15625 C 3.550781 -4.144531 4.0625 -5.300781 4.46875 -6.625 C 4.75 -6.5 5.035156 -6.410156 5.328125 -6.359375 C 5.171875 -5.828125 5.039062 -5.4375 4.9375 -5.1875 L 7.484375 -5.1875 L 7.484375 -0.03125 C 7.484375 0.351562 7.347656 0.628906 7.078125 0.796875 C 6.828125 0.929688 6.382812 1 5.75 1 C 5.8125 0.675781 5.6875 0.335938 5.375 -0.015625 C 5.800781 0.0351562 6.101562 0.0625 6.28125 0.0625 C 6.46875 0.0625 6.570312 0.0546875 6.59375 0.046875 C 6.625 0.00390625 6.640625 -0.101562 6.640625 -0.28125 L 6.640625 -4.46875 L 4.625 -4.46875 C 4.519531 -4.25 4.378906 -3.976562 4.203125 -3.65625 L 3.75 -2.84375 C 3.53125 -3.03125 3.257812 -3.132812 2.9375 -3.15625 Z M 0.71875 -0.21875 C 0.507812 -0.425781 0.210938 -0.550781 -0.171875 -0.59375 C 0.128906 -1.019531 0.394531 -1.4375 0.625 -1.84375 C 0.863281 -2.257812 1.0625 -2.691406 1.21875 -3.140625 C 1.382812 -3.585938 1.515625 -3.96875 1.609375 -4.28125 L 1.25 -4.28125 C 0.96875 -4.28125 0.628906 -4.265625 0.234375 -4.234375 C 0.253906 -4.515625 0.253906 -4.785156 0.234375 -5.046875 C 0.628906 -5.035156 0.96875 -5.03125 1.25 -5.03125 L 1.796875 -5.03125 L 1.796875 -5.34375 C 1.796875 -5.707031 1.78125 -6.132812 1.75 -6.625 C 2.0625 -6.59375 2.375 -6.59375 2.6875 -6.625 C 2.65625 -6.132812 2.640625 -5.707031 2.640625 -5.34375 L 2.640625 -5.03125 L 3.671875 -5.046875 C 3.648438 -4.785156 3.648438 -4.519531 3.671875 -4.25 L 2.640625 -4.28125 L 2.625 -3.765625 L 2.734375 -3.875 C 3.148438 -3.3125 3.515625 -2.71875 3.828125 -2.09375 L 3.046875 -1.65625 C 2.867188 -2 2.710938 -2.289062 2.578125 -2.53125 L 2.609375 -2.546875 L 2.640625 -0.234375 C 2.640625 0.128906 2.65625 0.554688 2.6875 1.046875 C 2.375 1.015625 2.0625 1.015625 1.75 1.046875 C 1.78125 0.554688 1.796875 0.128906 1.796875 -0.234375 L 1.953125 -3.125 C 1.660156 -2.03125 1.25 -1.0625 0.71875 -0.21875 Z "/>
</g>
</g>
</defs>
<g fill="rgb(100%, 100%, 100%)" fill-opacity="1">
<use xlink:href="#glyph-0-0" x="30" y="27.488281"/>
<use xlink:href="#glyph-0-1" x="38" y="27.488281"/>
<use xlink:href="#glyph-0-2" x="46" y="27.488281"/>
<use xlink:href="#glyph-0-3" x="54" y="27.488281"/>
<use xlink:href="#glyph-0-4" x="62" y="27.488281"/>
<use xlink:href="#glyph-0-5" x="70" y="27.488281"/>
</g>
</svg>
